<?xml version="1.0" encoding="utf-8"?>
<!-- Generator: Adobe Illustrator 18.1.1, SVG Export Plug-In . SVG Version: 6.00 Build 0)  -->
<svg version="1.1" id="Layer_1" xmlns="http://www.w3.org/2000/svg" xmlns:xlink="http://www.w3.org/1999/xlink" x="0px" y="0px"
	 viewBox="0 0 960 560" enable-background="new 0 0 960 560" xml:space="preserve">
<g>
	<path fill="#FFFFFF" d="M717.4,560c-11.2,0-22.4-4.5-30.2-12.9L571.3,432.3c-39.2,27.4-86.8,42-134.4,42
		c-131,0-236.9-106.4-236.9-237.4S305.8,0,436.9,0s236.9,105.8,236.9,236.9c0,47.6-14.6,95.2-42,134.4l115.4,115.4
		c7.8,7.8,12.3,19,12.3,30.2C760.6,541,741,560,717.4,560z M436.9,86.2c-83.4,0-150.6,67.8-150.6,150.6
		c0,83.4,67.8,150.6,150.6,150.6s150.6-67.8,150.6-150.6C588.1,154,520.3,86.2,436.9,86.2z M545,248.1c0,5.6-5,10.6-10.6,10.6h-75.6
		v75.6c0,5.6-5,10.6-10.6,10.6h-21.3c-5.6,0-10.6-5-10.6-10.6v-75.6H340c-5.6,0-10.6-5-10.6-10.6v-21.3c0-5.6,5-10.6,10.6-10.6h75.6
		V140c0-5.6,5-10.6,10.6-10.6h21.3c5.6,0,10.6,5,10.6,10.6v75.6h75.6c5.6,0,10.6,5,10.6,10.6V248L545,248.1L545,248.1z"/>
</g>
</svg>
