<?xml version="1.0" encoding="utf-8"?>
<!-- Generator: Adobe Illustrator 18.1.1, SVG Export Plug-In . SVG Version: 6.00 Build 0)  -->
<svg version="1.1" id="Layer_1" xmlns="http://www.w3.org/2000/svg" xmlns:xlink="http://www.w3.org/1999/xlink" x="0px" y="0px"
	 viewBox="0 0 128 128" enable-background="new 0 0 128 128" xml:space="preserve">
<g>
	<path fill="#F15A24" d="M56.6,91.8c0.9,0.1,1.9,0.1,2.9,0.1c1.8,0,3.6-0.2,5.4-0.5l7.5-26.2l4.8-16.8l10.5-36.3
		c-0.6-0.1-1.5-0.2-2.5-0.2c-1-0.1-2-0.1-2.8-0.1c-0.8,0-1.7,0-2.6,0.1c-0.9,0.1-1.6,0.1-2.3,0.2l-6.4,24.1L56.6,91.8z"/>
	<path d="M71.4,36.2c-0.9-0.1-1.9-0.1-2.9-0.1c-1.8,0-3.6,0.2-5.4,0.5l-7.5,26.2l-4.8,16.8l-10.5,36.3c0.6,0.1,1.5,0.2,2.5,0.2
		c1,0.1,2,0.1,2.8,0.1c0.8,0,1.7,0,2.6-0.1c0.9-0.1,1.6-0.1,2.3-0.2l6.4-24.1L71.4,36.2z"/>
</g>
</svg>
