<?xml version="1.0" encoding="utf-8"?>
<!-- Generator: Adobe Illustrator 18.1.1, SVG Export Plug-In . SVG Version: 6.00 Build 0)  -->
<svg version="1.1" id="Layer_1" xmlns="http://www.w3.org/2000/svg" xmlns:xlink="http://www.w3.org/1999/xlink" x="0px" y="0px"
	 viewBox="0 0 561.5 128.2" enable-background="new 0 0 561.5 128.2" xml:space="preserve">
<path d="M387.6,101.6c-4.2,0-7.9-0.8-11.1-2.3c-3.2-1.5-5.8-3.6-8-6.3c-2.1-2.7-3.7-5.8-4.7-9.5c-1-3.6-1.6-7.5-1.6-11.7
	c0-4.2,0.5-8.1,1.6-11.7c1-3.6,2.6-6.8,4.7-9.5c2.1-2.7,4.8-4.8,8-6.3c3.2-1.5,6.9-2.3,11.1-2.3s7.9,0.8,11.1,2.3
	c3.2,1.5,5.8,3.6,7.9,6.3c2.1,2.7,3.7,5.8,4.8,9.5c1.1,3.6,1.6,7.5,1.6,11.7c0,4.2-0.5,8.1-1.6,11.7c-1.1,3.6-2.7,6.8-4.8,9.5
	c-2.1,2.7-4.8,4.8-7.9,6.3C395.5,100.9,391.8,101.6,387.6,101.6z M387.6,95.2c5.9,0,10.4-2.1,13.3-6.2c2.9-4.2,4.4-9.8,4.4-17
	c0-7.2-1.5-12.9-4.4-17c-2.9-4.2-7.4-6.2-13.3-6.2c-5.9,0-10.4,2.1-13.3,6.2c-2.9,4.2-4.4,9.8-4.4,17c0,7.2,1.5,12.9,4.4,17
	C377.2,93.1,381.6,95.2,387.6,95.2z"/>
<path d="M420.2,43.5c0.6-0.1,1.2-0.1,1.7-0.2c0.6,0,1.1-0.1,1.6-0.1c0.6,0,1.2,0,1.7,0.1c0.5,0,1.1,0.1,1.7,0.2c0.1,1.3,0.3,3,0.3,5
	c0.1,2,0.1,3.8,0.1,5.2c0.7-1.3,1.7-2.7,2.9-4.1c1.2-1.4,2.6-2.6,4.2-3.7c1.6-1.1,3.4-2,5.5-2.7c2.1-0.7,4.3-1.1,6.8-1.1
	c6.5,0,11.3,1.9,14.3,5.8c3,3.9,4.5,9.4,4.5,16.4v35.9c-0.4,0.1-1.1,0.1-1.8,0.2c-0.8,0-1.4,0.1-1.8,0.1c-0.4,0-1,0-1.8-0.1
	c-0.8,0-1.4-0.1-1.9-0.2V66.7c0-6.3-1-10.8-3-13.6c-2-2.7-4.9-4.1-8.9-4.1c-2.6,0-5,0.5-7.4,1.6c-2.3,1-4.3,2.5-6,4.5
	c-1.7,2-3,4.4-4,7.3c-1,2.9-1.4,6.2-1.4,9.9v28.1c-0.4,0.1-1.1,0.1-1.8,0.2c-0.8,0-1.4,0.1-1.8,0.1c-0.4,0-1,0-1.8-0.1
	c-0.8,0-1.4-0.1-1.9-0.2V43.5z"/>
<path d="M479.9,49.7h-9.7c-0.1-0.4-0.1-0.9-0.2-1.4c0-0.6-0.1-1.2-0.1-1.8c0-0.6,0-1.2,0.1-1.7c0-0.5,0.1-1,0.2-1.3h9.7V32.8
	l6.9-6.8h0.4v17.5h15.4c0.1,0.4,0.1,0.8,0.2,1.3c0,0.5,0.1,1.1,0.1,1.7c0,0.6,0,1.2-0.1,1.8c0,0.6-0.1,1.1-0.2,1.4h-15.4v37
	c0,1.9,0.2,3.3,0.7,4.4c0.5,1.1,1.1,1.9,1.9,2.5c0.8,0.6,1.7,1,2.7,1.2c1,0.2,2,0.3,3.1,0.3c2.6,0,4.9-0.3,6.8-1
	c0.5,1.9,0.9,4,1.1,6.2c-2.7,0.8-5.8,1.2-9.4,1.2c-4.2,0-7.7-1.1-10.3-3.4c-2.6-2.3-4-6-4-11.1V49.7z"/>
<path d="M535,100.5h-2.1c-0.7,0-1.4,0-2.3-0.1c-0.9,0-1.5-0.1-1.9-0.2l-20.5-56.8c0.4-0.1,1.1-0.1,1.9-0.2c0.8,0,1.6-0.1,2.3-0.1
	c0.6,0,1.3,0,2.2,0.1c0.9,0,1.6,0.1,2,0.2l18.8,55.2l18.5-55.2c0.4-0.1,1-0.1,1.8-0.2c0.7,0,1.4-0.1,2-0.1c0.6,0,1.3,0,2,0.1
	c0.7,0,1.3,0.1,1.8,0.2l-24.9,73.6c-1.3,4.1-3.2,6.9-5.7,8.6c-2.5,1.6-5.3,2.5-8.7,2.5c-1.6,0-3.1-0.2-4.7-0.4
	c-1.6-0.3-2.9-0.6-4-0.9c0-2.3,0.6-4.4,1.7-6.2c0.6,0.2,1.5,0.5,2.7,0.7c1.2,0.3,2.5,0.4,4,0.4c2.2,0,3.9-0.5,5.2-1.6
	c1.3-1,2.4-3,3.4-5.8L535,100.5z"/>
<path fill="#F15A24" d="M39.3,44.8c0-4.9-1.2-8.5-3.5-10.7c-2.3-2.3-5.7-3.4-10.2-3.4c-3,0-5.7,0.2-8.1,0.6
	c-2.5,0.4-4.6,0.9-6.6,1.5c-0.4-0.7-0.7-1.6-0.9-2.9c-0.3-1.3-0.4-2.5-0.4-3.6c1.9-0.6,4.3-1.1,7.1-1.5c2.8-0.4,5.7-0.6,8.7-0.6
	c7.2,0,12.5,1.6,16,4.7c3.5,3.2,5.2,8.1,5.2,14.9v37.5c-2.6,0.5-5.8,1-9.5,1.6c-3.7,0.5-7.2,0.8-10.6,0.8c-6.9,0-12.3-1.4-16.3-4.1
	c-4-2.7-6-7.2-6-13.4c0-3,0.6-5.6,1.7-8c1.2-2.3,2.7-4.3,4.8-5.9c2-1.6,4.5-2.8,7.4-3.6c2.9-0.8,6-1.2,9.4-1.2c2.7,0,5,0.1,6.9,0.3
	c1.9,0.2,3.5,0.4,4.8,0.5V44.8z M39.3,54.7c-1.3-0.1-2.8-0.3-4.7-0.5c-1.9-0.2-3.7-0.3-5.4-0.3c-5.6,0-9.9,1-12.9,3.1
	c-3,2.1-4.6,5.1-4.6,8.9c0,2.5,0.5,4.4,1.4,5.9c0.9,1.5,2.1,2.6,3.6,3.4c1.5,0.8,3.1,1.3,4.9,1.6c1.8,0.3,3.6,0.4,5.3,0.4
	c2.3,0,4.5-0.1,6.5-0.3s4-0.5,5.9-0.9V54.7z"/>
<path fill="#F15A24" d="M54.5,25.5c0.6-0.1,1.2-0.1,1.7-0.2c0.6,0,1.1-0.1,1.6-0.1c0.6,0,1.2,0,1.7,0.1c0.5,0,1.1,0.1,1.7,0.2
	c0.1,1.3,0.3,3,0.3,5c0.1,2,0.1,3.8,0.1,5.2c0.7-1.3,1.7-2.7,2.9-4.1c1.2-1.4,2.6-2.6,4.2-3.7c1.6-1.1,3.4-2,5.5-2.7
	c2.1-0.7,4.3-1.1,6.8-1.1c6.5,0,11.3,1.9,14.3,5.8c3,3.9,4.5,9.4,4.5,16.4v35.9c-0.4,0.1-1.1,0.1-1.8,0.2c-0.8,0-1.4,0.1-1.8,0.1
	c-0.4,0-1,0-1.8-0.1c-0.8,0-1.4-0.1-1.9-0.2V48.7c0-6.3-1-10.8-3-13.6c-2-2.7-4.9-4.1-8.9-4.1c-2.6,0-5.1,0.5-7.4,1.6
	c-2.3,1-4.3,2.5-6,4.5c-1.7,2-3,4.4-4,7.3c-1,2.9-1.4,6.2-1.4,9.9v28.1c-0.4,0.1-1.1,0.1-1.8,0.2c-0.8,0-1.4,0.1-1.8,0.1
	c-0.4,0-1,0-1.8-0.1c-0.8,0-1.4-0.1-1.9-0.2V25.5z"/>
<path fill="#F15A24" d="M147.9,0.4c0.4-0.1,1.1-0.1,1.9-0.2c0.8,0,1.4-0.1,1.8-0.1c0.4,0,1.1,0,1.8,0.1c0.8,0,1.4,0.1,1.8,0.2V81
	c-2.3,0.7-5.2,1.4-8.6,1.9c-3.4,0.5-7,0.8-10.7,0.8c-4.1,0-7.9-0.5-11.5-1.4c-3.6-1-6.6-2.6-9.2-4.8c-2.6-2.2-4.7-5.2-6.2-8.8
	c-1.5-3.6-2.3-8.1-2.3-13.5c0-4.9,0.7-9.3,2-13.1c1.3-3.8,3.2-7.1,5.7-9.7c2.5-2.6,5.4-4.7,8.9-6.1c3.5-1.4,7.3-2.1,11.4-2.1
	c2.5,0,4.9,0.2,7.3,0.6c2.4,0.4,4.4,0.9,5.8,1.4V0.4z M147.9,33.1c-1.5-0.6-3.4-1.1-5.7-1.6c-2.3-0.5-4.7-0.7-7.1-0.7
	c-3.5,0-6.5,0.6-9.1,1.8c-2.6,1.2-4.7,2.8-6.4,5c-1.7,2.1-3,4.7-3.8,7.6c-0.9,3-1.3,6.2-1.3,9.8c0,7.7,1.8,13.3,5.5,16.9
	c3.7,3.5,8.9,5.3,15.6,5.3c2.5,0,4.8-0.1,7-0.4c2.2-0.3,4-0.6,5.2-0.9V33.1z"/>
<path fill="#F15A24" d="M164.2,25.5c0.6-0.1,1.2-0.1,1.7-0.2c0.6,0,1.1-0.1,1.6-0.1c0.6,0,1.2,0,1.7,0.1c0.5,0,1.1,0.1,1.7,0.2
	c0.1,1.3,0.3,2.9,0.3,4.7c0.1,1.8,0.1,3.5,0.1,5c1.5-2.7,3.6-5.1,6.2-7c2.7-1.9,6.2-2.8,10.6-2.8c0.4,0,0.8,0,1.2,0
	c0.4,0,0.9,0,1.4,0.1c0.2,1.3,0.3,2.5,0.3,3.6c0,1.2-0.1,2.3-0.3,3.5c-0.6-0.1-1.1-0.1-1.4-0.1s-0.7,0-1.1,0
	c-5.1,0-9.1,1.6-12.1,4.8c-3,3.2-4.6,8.5-4.6,15.9v29.2c-0.4,0.1-1.1,0.1-1.8,0.2c-0.8,0-1.4,0.1-1.8,0.1c-0.4,0-1,0-1.8-0.1
	c-0.8,0-1.4-0.1-1.9-0.2V25.5z"/>
<path fill="#F15A24" d="M199.3,55c0,7.6,1.7,13.1,5.2,16.7c3.5,3.6,8.7,5.3,15.7,5.3c2.8,0,5.4-0.2,7.9-0.7c2.4-0.5,4.8-1.1,7.1-1.9
	c0.4,0.8,0.7,1.8,0.9,3c0.2,1.2,0.4,2.3,0.4,3.2c-2.2,1-4.7,1.7-7.6,2.2c-2.9,0.5-6.1,0.8-9.5,0.8c-4.9,0-9.1-0.7-12.6-2.2
	c-3.5-1.4-6.4-3.5-8.7-6.1c-2.3-2.6-3.9-5.7-5-9.3c-1.1-3.6-1.6-7.6-1.6-11.9c0-4.2,0.5-8.1,1.5-11.7c1-3.6,2.5-6.8,4.6-9.6
	c2-2.7,4.7-4.9,7.9-6.5c3.2-1.6,7-2.3,11.5-2.3c3.7,0,7,0.6,9.9,1.9c2.9,1.3,5.3,3,7.3,5.3c2,2.3,3.5,5,4.5,8.1
	c1,3.2,1.5,6.6,1.5,10.3c0,0.7,0,1.5-0.1,2.6c0,1-0.1,1.9-0.2,2.7H199.3z M232.7,48.9c0-2.3-0.3-4.6-0.9-6.8
	c-0.6-2.2-1.5-4.2-2.8-5.8c-1.3-1.7-2.9-3-4.9-4.1c-2-1-4.4-1.6-7.2-1.6c-5.2,0-9.2,1.6-12.1,4.8c-2.9,3.2-4.6,7.7-5.2,13.5H232.7z"
	/>
<polygon fill="none" points="298.8,73.1 298.8,73.2 304.3,52.2 304.3,52.2 "/>
<path d="M344.5,43c-1.2-0.2-2.5-0.3-3.9-0.3c-1.3,0-2.6,0.1-3.9,0.3l-14.4,47l-11.2-38.5l-3.5,12l10.7,36.3c0.6,0.1,1.2,0.3,1.8,0.3
	c0.6,0,1.2,0,1.8,0c0.8,0,1.6-0.1,2.3-0.1c0.7,0,1.4-0.1,1.9-0.2l14-48.4l12.6,48.3c0.4,0.1,1.1,0.1,1.9,0.2c0.9,0,1.6,0.1,2.2,0.1
	c0.7,0,1.5,0,2.2-0.1c0.7,0,1.3-0.1,1.7-0.2L344.5,43z"/>
<path fill="#F15A24" d="M284.7,25.4c-0.6-0.1-1.2-0.3-1.8-0.3c-0.6,0-1.2,0-1.8,0c-0.8,0-1.6,0.1-2.3,0.1c-0.7,0-1.4,0.1-1.9,0.2
	l-14,48.4l-12.6-48.3c-0.4-0.1-1.1-0.1-1.9-0.2c-0.9,0-1.6-0.1-2.2-0.1c-0.7,0-1.5,0-2.2,0.1c-0.7,0-1.3,0.1-1.7,0.2l16.4,56.8
	c1.2,0.2,2.5,0.3,3.9,0.3c1.3,0,2.6-0.1,3.9-0.3l14.4-47L292,73.8l3.5-12.1L284.7,25.4z"/>
<path fill="#F15A24" d="M316.8,25.3c-0.7,0-1.4-0.1-2-0.1c-0.6,0-1.2,0-1.8,0.1c-0.6,0-1.2,0.1-1.6,0.2l-4.6,17.3l-2.5,9.5
	l-5.5,20.9l0-0.1l-2.5,9.5c0.7,0.1,1.4,0.1,2.1,0.1c1.3,0,2.6-0.1,3.9-0.3l5.4-18.8l3.5-12l7.5-26C318.2,25.4,317.6,25.4,316.8,25.3
	z"/>
<path d="M304.7,42.7c-1.3,0-2.6,0.1-3.9,0.3l-5.4,18.8l-3.5,12l-7.5,26c0.4,0.1,1,0.1,1.8,0.2c0.7,0,1.4,0.1,2,0.1
	c0.6,0,1.2,0,1.8-0.1c0.6,0,1.2-0.1,1.6-0.2l4.6-17.3l2.5-9.5l5.5-20.9l0,0.1l2.5-9.5C306.1,42.7,305.5,42.7,304.7,42.7z"/>
</svg>
