<?xml version="1.0" encoding="utf-8"?>
<!-- Generator: Adobe Illustrator 18.1.1, SVG Export Plug-In . SVG Version: 6.00 Build 0)  -->
<svg version="1.1" id="Layer_1" xmlns="http://www.w3.org/2000/svg" xmlns:xlink="http://www.w3.org/1999/xlink" x="0px" y="0px"
	 viewBox="0 0 590.7 153.1" enable-background="new 0 0 590.7 153.1" xml:space="preserve">
<g>
	<text transform="matrix(-1 0 0 -1 390.0219 -112.9679)" font-family="'Aller-Light'" font-size="111.3778">w</text>
	<text transform="matrix(1 0 0 1 382.4174 -55.6807)"><tspan x="0" y="0" font-family="'Aller-Light'" font-size="111.3778" letter-spacing="-9">o</tspan><tspan x="54.8" y="0" font-family="'Aller-Light'" font-size="111.3778" letter-spacing="-6">n</tspan><tspan x="111.9" y="0" font-family="'Aller-Light'" font-size="111.3778" letter-spacing="3">t</tspan><tspan x="152.8" y="0" font-family="'Aller-Light'" font-size="111.3778" letter-spacing="-2">y</tspan></text>
</g>
<path fill="#F15A24" d="M398.9,113.3c-4.2,0-7.9-0.8-11.1-2.3c-3.2-1.5-5.8-3.6-8-6.3c-2.1-2.7-3.7-5.8-4.7-9.5
	c-1-3.6-1.6-7.5-1.6-11.7c0-4.2,0.5-8.1,1.6-11.7c1-3.6,2.6-6.8,4.7-9.5c2.1-2.7,4.8-4.8,8-6.3c3.2-1.5,6.9-2.3,11.1-2.3
	s7.9,0.8,11.1,2.3c3.2,1.5,5.8,3.6,7.9,6.3c2.1,2.7,3.7,5.8,4.8,9.5c1.1,3.6,1.6,7.5,1.6,11.7c0,4.2-0.5,8.1-1.6,11.7
	c-1.1,3.6-2.7,6.8-4.8,9.5c-2.1,2.7-4.8,4.8-7.9,6.3C406.8,112.5,403.1,113.3,398.9,113.3z M398.9,106.8c5.9,0,10.4-2.1,13.3-6.2
	c2.9-4.2,4.4-9.8,4.4-17c0-7.2-1.5-12.9-4.4-17c-2.9-4.2-7.4-6.2-13.3-6.2c-5.9,0-10.4,2.1-13.3,6.2c-2.9,4.2-4.4,9.8-4.4,17
	c0,7.2,1.5,12.9,4.4,17C388.5,104.7,392.9,106.8,398.9,106.8z"/>
<path fill="#F15A24" d="M431.5,55.1c0.6-0.1,1.2-0.1,1.7-0.2c0.6,0,1.1-0.1,1.6-0.1c0.6,0,1.2,0,1.7,0.1c0.5,0,1.1,0.1,1.7,0.2
	c0.1,1.3,0.3,3,0.3,5c0.1,2,0.1,3.8,0.1,5.2c0.7-1.3,1.7-2.7,2.9-4.1c1.2-1.4,2.6-2.6,4.2-3.7c1.6-1.1,3.4-2,5.5-2.7
	c2.1-0.7,4.3-1.1,6.8-1.1c6.5,0,11.3,1.9,14.3,5.8c3,3.9,4.5,9.4,4.5,16.4v35.9c-0.4,0.1-1.1,0.1-1.8,0.2c-0.8,0-1.4,0.1-1.8,0.1
	c-0.4,0-1,0-1.8-0.1c-0.8,0-1.4-0.1-1.9-0.2V78.3c0-6.3-1-10.8-3-13.6c-2-2.7-4.9-4.1-8.9-4.1c-2.6,0-5,0.5-7.4,1.6
	c-2.3,1-4.3,2.5-6,4.5c-1.7,2-3,4.4-4,7.3c-1,2.9-1.4,6.2-1.4,9.9v28.1c-0.4,0.1-1.1,0.1-1.8,0.2c-0.8,0-1.4,0.1-1.8,0.1
	c-0.4,0-1,0-1.8-0.1c-0.8,0-1.4-0.1-1.9-0.2V55.1z"/>
<path fill="#F15A24" d="M491.2,61.4h-9.7c-0.1-0.4-0.1-0.9-0.2-1.4c0-0.6-0.1-1.2-0.1-1.8c0-0.6,0-1.2,0.1-1.7c0-0.5,0.1-1,0.2-1.3
	h9.7V44.4l6.9-6.8h0.4v17.5h15.4c0.1,0.4,0.1,0.8,0.2,1.3c0,0.5,0.1,1.1,0.1,1.7c0,0.6,0,1.2-0.1,1.8c0,0.6-0.1,1.1-0.2,1.4h-15.4
	v37c0,1.9,0.2,3.3,0.7,4.4c0.5,1.1,1.1,1.9,1.9,2.5c0.8,0.6,1.7,1,2.7,1.2c1,0.2,2,0.3,3.1,0.3c2.6,0,4.9-0.3,6.8-1
	c0.5,1.9,0.9,4,1.1,6.2c-2.7,0.8-5.8,1.2-9.4,1.2c-4.2,0-7.7-1.1-10.3-3.4c-2.6-2.3-4-6-4-11.1V61.4z"/>
<path fill="#F15A24" d="M546.3,112.2h-2.1c-0.7,0-1.4,0-2.3-0.1c-0.9,0-1.5-0.1-1.9-0.2l-20.5-56.8c0.4-0.1,1.1-0.1,1.9-0.2
	c0.8,0,1.6-0.1,2.3-0.1c0.6,0,1.3,0,2.2,0.1c0.9,0,1.6,0.1,2,0.2l18.8,55.2l18.5-55.2c0.4-0.1,1-0.1,1.8-0.2c0.7,0,1.4-0.1,2-0.1
	c0.6,0,1.3,0,2,0.1c0.7,0,1.3,0.1,1.8,0.2l-24.9,73.6c-1.3,4.1-3.2,6.9-5.7,8.6c-2.5,1.6-5.3,2.5-8.7,2.5c-1.6,0-3.1-0.2-4.7-0.4
	c-1.6-0.3-2.9-0.6-4-0.9c0-2.3,0.6-4.4,1.7-6.2c0.6,0.2,1.5,0.5,2.7,0.7c1.2,0.3,2.5,0.4,4,0.4c2.2,0,3.9-0.5,5.2-1.6
	c1.3-1,2.4-3,3.4-5.8L546.3,112.2z"/>
<text transform="matrix(1 0 0 1 3.497 -84.3244)"><tspan x="0" y="0" fill="#F15A24" font-family="'Aller-Light'" font-size="111.3778" letter-spacing="-8">andr</tspan><tspan x="190.7" y="0" fill="#F15A24" font-family="'Aller-Light'" font-size="111.3778" letter-spacing="-5">e</tspan><tspan x="246.4" y="0" fill="#F15A24" font-family="'Aller-Light'" font-size="111.3778" letter-spacing="-8">w</tspan></text>
<path d="M50.6,56.4c0-4.9-1.2-8.5-3.5-10.7c-2.3-2.3-5.7-3.4-10.2-3.4c-3,0-5.7,0.2-8.1,0.6c-2.5,0.4-4.6,0.9-6.6,1.5
	c-0.4-0.7-0.7-1.6-0.9-2.9c-0.3-1.3-0.4-2.5-0.4-3.6c1.9-0.6,4.3-1.1,7.1-1.5c2.8-0.4,5.7-0.6,8.7-0.6c7.2,0,12.5,1.6,16,4.7
	c3.5,3.2,5.2,8.1,5.2,14.9v37.5c-2.6,0.5-5.8,1-9.5,1.6c-3.7,0.5-7.2,0.8-10.6,0.8c-6.9,0-12.3-1.4-16.3-4.1c-4-2.7-6-7.2-6-13.4
	c0-3,0.6-5.6,1.7-8c1.2-2.3,2.7-4.3,4.8-5.9c2-1.6,4.5-2.8,7.4-3.6c2.9-0.8,6-1.2,9.4-1.2c2.7,0,5,0.1,6.9,0.3
	c1.9,0.2,3.5,0.4,4.8,0.5V56.4z M50.6,66.3c-1.3-0.1-2.8-0.3-4.7-0.5c-1.9-0.2-3.7-0.3-5.4-0.3c-5.6,0-9.9,1-12.9,3.1
	c-3,2.1-4.6,5.1-4.6,8.9c0,2.5,0.5,4.4,1.4,5.9c0.9,1.5,2.1,2.6,3.6,3.4c1.5,0.8,3.1,1.3,4.9,1.6c1.8,0.3,3.6,0.4,5.3,0.4
	c2.3,0,4.5-0.1,6.5-0.3s4-0.5,5.9-0.9V66.3z"/>
<path d="M65.9,37.1c0.6-0.1,1.2-0.1,1.7-0.2c0.6,0,1.1-0.1,1.6-0.1c0.6,0,1.2,0,1.7,0.1c0.5,0,1.1,0.1,1.7,0.2c0.1,1.3,0.3,3,0.3,5
	c0.1,2,0.1,3.8,0.1,5.2c0.7-1.3,1.7-2.7,2.9-4.1c1.2-1.4,2.6-2.6,4.2-3.7c1.6-1.1,3.4-2,5.5-2.7c2.1-0.7,4.3-1.1,6.8-1.1
	c6.5,0,11.3,1.9,14.3,5.8c3,3.9,4.5,9.4,4.5,16.4v35.9c-0.4,0.1-1.1,0.1-1.8,0.2c-0.8,0-1.4,0.1-1.8,0.1c-0.4,0-1,0-1.8-0.1
	c-0.8,0-1.4-0.1-1.9-0.2V60.3c0-6.3-1-10.8-3-13.6c-2-2.7-4.9-4.1-8.9-4.1c-2.6,0-5.1,0.5-7.4,1.6c-2.3,1-4.3,2.5-6,4.5
	c-1.7,2-3,4.4-4,7.3c-1,2.9-1.4,6.2-1.4,9.9v28.1c-0.4,0.1-1.1,0.1-1.8,0.2c-0.8,0-1.4,0.1-1.8,0.1c-0.4,0-1,0-1.8-0.1
	c-0.8,0-1.4-0.1-1.9-0.2V37.1z"/>
<path d="M159.2,12.1c0.4-0.1,1.1-0.1,1.9-0.2c0.8,0,1.4-0.1,1.8-0.1c0.4,0,1.1,0,1.8,0.1c0.8,0,1.4,0.1,1.8,0.2v80.5
	c-2.3,0.7-5.2,1.4-8.6,1.9c-3.4,0.5-7,0.8-10.7,0.8c-4.1,0-7.9-0.5-11.5-1.4c-3.6-1-6.6-2.6-9.2-4.8c-2.6-2.2-4.7-5.2-6.2-8.8
	c-1.5-3.6-2.3-8.1-2.3-13.5c0-4.9,0.7-9.3,2-13.1c1.3-3.8,3.2-7.1,5.7-9.7c2.5-2.6,5.4-4.7,8.9-6.1c3.5-1.4,7.3-2.1,11.4-2.1
	c2.5,0,4.9,0.2,7.3,0.6c2.4,0.4,4.4,0.9,5.8,1.4V12.1z M159.2,44.7c-1.5-0.6-3.4-1.1-5.7-1.6c-2.3-0.5-4.7-0.7-7.1-0.7
	c-3.5,0-6.5,0.6-9.1,1.8c-2.6,1.2-4.7,2.8-6.4,5c-1.7,2.1-3,4.7-3.8,7.6c-0.9,3-1.3,6.2-1.3,9.8c0,7.7,1.8,13.3,5.5,16.9
	c3.7,3.5,8.9,5.3,15.6,5.3c2.5,0,4.8-0.1,7-0.4c2.2-0.3,4-0.6,5.2-0.9V44.7z"/>
<path d="M175.6,37.1c0.6-0.1,1.2-0.1,1.7-0.2c0.6,0,1.1-0.1,1.6-0.1c0.6,0,1.2,0,1.7,0.1c0.5,0,1.1,0.1,1.7,0.2
	c0.1,1.3,0.3,2.9,0.3,4.7c0.1,1.8,0.1,3.5,0.1,5c1.5-2.7,3.6-5.1,6.2-7c2.7-1.9,6.2-2.8,10.6-2.8c0.4,0,0.8,0,1.2,0
	c0.4,0,0.9,0,1.4,0.1c0.2,1.3,0.3,2.5,0.3,3.6c0,1.2-0.1,2.3-0.3,3.5c-0.6-0.1-1.1-0.1-1.4-0.1s-0.7,0-1.1,0
	c-5.1,0-9.1,1.6-12.1,4.8c-3,3.2-4.6,8.5-4.6,15.9v29.2c-0.4,0.1-1.1,0.1-1.8,0.2c-0.8,0-1.4,0.1-1.8,0.1c-0.4,0-1,0-1.8-0.1
	c-0.8,0-1.4-0.1-1.9-0.2V37.1z"/>
<path d="M210.7,66.7c0,7.6,1.7,13.1,5.2,16.7c3.5,3.6,8.7,5.3,15.7,5.3c2.8,0,5.4-0.2,7.9-0.7c2.4-0.5,4.8-1.1,7.1-1.9
	c0.4,0.8,0.7,1.8,0.9,3c0.2,1.2,0.4,2.3,0.4,3.2c-2.2,1-4.7,1.7-7.6,2.2c-2.9,0.5-6.1,0.8-9.5,0.8c-4.9,0-9.1-0.7-12.6-2.2
	c-3.5-1.4-6.4-3.5-8.7-6.1c-2.3-2.6-3.9-5.7-5-9.3c-1.1-3.6-1.6-7.6-1.6-11.9c0-4.2,0.5-8.1,1.5-11.7c1-3.6,2.5-6.8,4.6-9.6
	c2-2.7,4.7-4.9,7.9-6.5c3.2-1.6,7-2.3,11.5-2.3c3.7,0,7,0.6,9.9,1.9c2.9,1.3,5.3,3,7.3,5.3c2,2.3,3.5,5,4.5,8.1
	c1,3.2,1.5,6.6,1.5,10.3c0,0.7,0,1.5-0.1,2.6c0,1-0.1,1.9-0.2,2.7H210.7z M244.1,60.5c0-2.3-0.3-4.6-0.9-6.8
	c-0.6-2.2-1.5-4.2-2.8-5.8c-1.3-1.7-2.9-3-4.9-4.1c-2-1-4.4-1.6-7.2-1.6c-5.2,0-9.2,1.6-12.1,4.8c-2.9,3.2-4.6,7.7-5.2,13.5H244.1z"
	/>
<polygon fill="none" points="310.1,84.7 310.1,84.8 315.6,63.9 315.6,63.8 "/>
<path fill="#F15A24" d="M355.8,54.7c-1.2-0.2-2.5-0.3-3.9-0.3c-1.3,0-2.6,0.1-3.9,0.3l-14.4,47l-11.2-38.5l-3.5,12l10.7,36.3
	c0.6,0.1,1.2,0.3,1.8,0.3c0.6,0,1.2,0,1.8,0c0.8,0,1.6-0.1,2.3-0.1c0.7,0,1.4-0.1,1.9-0.2l14-48.4l12.6,48.3
	c0.4,0.1,1.1,0.1,1.9,0.2c0.9,0,1.6,0.1,2.2,0.1c0.7,0,1.5,0,2.2-0.1c0.7,0,1.3-0.1,1.7-0.2L355.8,54.7z"/>
<path d="M296.1,37.1c-0.6-0.1-1.2-0.3-1.8-0.3c-0.6,0-1.2,0-1.8,0c-0.8,0-1.6,0.1-2.3,0.1c-0.7,0-1.4,0.1-1.9,0.2l-14,48.4
	l-12.6-48.3c-0.4-0.1-1.1-0.1-1.9-0.2c-0.9,0-1.6-0.1-2.2-0.1c-0.7,0-1.5,0-2.2,0.1c-0.7,0-1.3,0.1-1.7,0.2l16.4,56.8
	c1.2,0.2,2.5,0.3,3.9,0.3c1.3,0,2.6-0.1,3.9-0.3l14.4-47l11.2,38.5l3.5-12.1L296.1,37.1z"/>
<path d="M328.2,37c-0.7,0-1.4-0.1-2-0.1c-0.6,0-1.2,0-1.8,0.1c-0.6,0-1.2,0.1-1.6,0.2l-4.6,17.3l-2.5,9.5l-5.5,20.9l0-0.1l-2.5,9.5
	c0.7,0.1,1.4,0.1,2.1,0.1c1.3,0,2.6-0.1,3.9-0.3l5.4-18.8l3.5-12l7.5-26C329.5,37.1,328.9,37,328.2,37z"/>
<path fill="#F15A24" d="M316.1,54.3c-1.3,0-2.6,0.1-3.9,0.3l-5.4,18.8l-3.5,12l-7.5,26c0.4,0.1,1,0.1,1.8,0.2c0.7,0,1.4,0.1,2,0.1
	c0.6,0,1.2,0,1.8-0.1c0.6,0,1.2-0.1,1.6-0.2l4.6-17.3l2.5-9.5l5.5-20.9l0,0.1l2.5-9.5C317.5,54.4,316.8,54.3,316.1,54.3z"/>
<g>
	<polygon fill="#F15A24" points="317.1,-55.7 297.1,-55.7 322,-141.8 341.9,-141.8 	"/>
	<polygon points="307.1,-55.7 297.1,-55.7 322,-141.8 332,-141.8 	"/>
</g>
<g>
	<g>
		<text transform="matrix(-1 0 0 -1 484.0825 -474.428)" font-family="'Aller-Light'" font-size="150.611">w</text>
		<text transform="matrix(1 0 0 1 473.7993 -396.9613)"><tspan x="0" y="0" font-family="'Aller-Light'" font-size="150.611" letter-spacing="-12">o</tspan><tspan x="74.1" y="0" font-family="'Aller-Light'" font-size="150.611" letter-spacing="-8">n</tspan><tspan x="151.4" y="0" font-family="'Aller-Light'" font-size="150.611" letter-spacing="4">t</tspan><tspan x="206.6" y="0" font-family="'Aller-Light'" font-size="150.611" letter-spacing="-2">y</tspan></text>
	</g>
	<text transform="matrix(1 0 0 1 -127.8028 -396.9611)"><tspan x="0" y="0" fill="#F15A24" font-family="'Aller-Light'" font-size="150.611" letter-spacing="-11">andr</tspan><tspan x="257.8" y="0" fill="#F15A24" font-family="'Aller-Light'" font-size="150.611" letter-spacing="-7">e</tspan><tspan x="333.1" y="0" fill="#F15A24" font-family="'Aller-Light'" font-size="150.611" letter-spacing="-11">w</tspan></text>
	<g>
		<g>
			<g>
				<polyline points="306.2,-397 328.6,-474.4 355.6,-474.4 333.2,-397 				"/>
			</g>
			<g>
				<polyline fill="#F15A24" points="332.8,-397 355.2,-474.4 382.6,-474.4 360.2,-397 				"/>
			</g>
		</g>
	</g>
</g>
<g>
	<g>
		<text transform="matrix(-1 0 0 -1 391.7673 287.9111)" fill="#F15A24" font-family="'Aller-Light'" font-size="111.3778">w</text>
		<text transform="matrix(1 0 0 1 384.1628 345.1982)"><tspan x="0" y="0" fill="#F15A24" font-family="'Aller-Light'" font-size="111.3778" letter-spacing="-9">o</tspan><tspan x="54.8" y="0" fill="#F15A24" font-family="'Aller-Light'" font-size="111.3778" letter-spacing="-6">n</tspan><tspan x="111.9" y="0" fill="#F15A24" font-family="'Aller-Light'" font-size="111.3778" letter-spacing="3">t</tspan><tspan x="152.8" y="0" fill="#F15A24" font-family="'Aller-Light'" font-size="111.3778" letter-spacing="-2">y</tspan></text>
	</g>
</g>
<g>
	<text transform="matrix(1 0 0 1 13.9403 287.911)"><tspan x="0" y="0" font-family="'Aller-Light'" font-size="111.3778" letter-spacing="-8">andr</tspan><tspan x="190.7" y="0" font-family="'Aller-Light'" font-size="111.3778" letter-spacing="-5">e</tspan><tspan x="246.4" y="0" font-family="'Aller-Light'" font-size="111.3778" letter-spacing="-8">w</tspan></text>
</g>
<polyline points="316.1,287.9 332.6,230.6 352.6,230.6 336,287.9 "/>
<polyline fill="#F15A24" points="299.6,345.2 316.1,287.9 335.9,287.9 319.3,345.2 "/>
<g>
	<path fill="#F15A24" d="M672.3,91.6c0.9,0.1,1.9,0.1,2.9,0.1c1.8,0,3.6-0.2,5.4-0.5l7.5-26.2l4.8-16.8l10.5-36.3
		c-0.6-0.1-1.5-0.2-2.5-0.2c-1-0.1-2-0.1-2.8-0.1c-0.8,0-1.7,0-2.6,0.1c-0.9,0.1-1.6,0.1-2.3,0.2L687,36L672.3,91.6z"/>
	<path d="M687,36c-0.9-0.1-1.9-0.1-2.9-0.1c-1.8,0-3.6,0.2-5.4,0.5l-7.5,26.2l-4.8,16.8l-10.5,36.3c0.6,0.1,1.5,0.2,2.5,0.2
		c1,0.1,2,0.1,2.8,0.1c0.8,0,1.7,0,2.6-0.1c0.9-0.1,1.6-0.1,2.3-0.2l6.4-24.1L687,36z"/>
</g>
</svg>
