<?xml version="1.0" encoding="utf-8"?>
<!-- Generator: Adobe Illustrator 18.1.1, SVG Export Plug-In . SVG Version: 6.00 Build 0)  -->
<svg version="1.1" id="Layer_1" xmlns="http://www.w3.org/2000/svg" xmlns:xlink="http://www.w3.org/1999/xlink" x="0px" y="0px"
	 viewBox="0 0 281 130.7" enable-background="new 0 0 281 130.7" xml:space="preserve">
<text transform="matrix(1 0 0 1 26.2561 28.8626)" font-family="'Garamond'" font-size="24.39" letter-spacing="13">manchester</text>
<text transform="matrix(0.9936 0 0 1 30.7115 113.7195)" font-family="'Garamond'" font-size="24.395" letter-spacing="32.2">center</text>
<g>
	<path fill="#3447A5" d="M118.5,46.5c0.5,0.7,0.7,1.8,1,2.6c-1.4,0.9-3.3,1.3-5.1,1.8c-0.2-1.5-0.6-2.8-0.8-4.3
		c1.2-0.1,2.2-1.1,3.3-1.1c-3.2-1.7-6.8-2.6-10.7-2.6c-6.3,0-11.7,2.2-16.2,6.7c-4.5,4.5-6.7,9.9-6.7,16.1c0,0.9,0.1,1.9,0.2,2.8
		c0.3,1.3,0.8,2.4,1.4,3.5c2.5,4.1,8.7,5.6,13.9,4c4.3-1.3,7.4-7.9,3.2-12c-1.3,0.6-2.6,1.1-4.1,1.5c-1.1-0.7-1.5-2.1-2.2-3.2
		c3-0.6,7.8-2,7.2-5.9c-0.5-3-6.7-1.4-9.1-0.1c-1,0.5-1.8,1.4-2.8,1.9c-0.7-1.5-1.8-2.7-2.5-4.3c3.6-2.4,14.1-3.7,16.6,0.8
		c1.3,2.3-0.1,5.5-1.4,7.4c1.5,2.1,4.3,3.4,4.9,6.9c0.4,2.4-0.8,6.3,2.4,6.3c2.3,0,3.1-5,4.2-7.2c1.7-3.2,6.4-9.1,11.4-5.5
		c1.1,0.8,2,2.1,2.6,3.5c0-0.2,0-0.3,0-0.5c0-6.3-2.2-11.7-6.7-16.1C121.1,48.4,119.8,47.3,118.5,46.5z M123.3,54.2
		c1.5,0.3,1.6,3,2.5,3.9c-8.2,2.3-15.9-0.7-19-5.9c-0.2-0.2-0.1-0.2,0-0.4c0.1-0.1,0.3-0.2,0.3,0c1,0.1,1.5,1.3,2.1,1.8
		c2.2,1.7,6.4,2.5,10.5,1.7C120.9,55,122.5,54,123.3,54.2z"/>
	<path fill="#3447A5" d="M163.5,87.1c-5.8-5.8-8.8-12.9-8.8-21.2c0-8.2,2.9-15.3,8.8-21.2c3-3,6.4-5.3,10-6.7h-55.9
		c3.5,1.5,6.8,3.7,9.7,6.6c5.9,5.9,8.8,12.9,8.8,21.2c0,8.3-2.9,15.4-8.8,21.3c-3.3,3.3-6.9,5.6-10.9,7h57.9
		C170.4,92.6,166.8,90.3,163.5,87.1z"/>
	<path fill="#3447A5" d="M123.2,66.2c-1.9,0.3-2.4,2.7-3.2,4.6c-0.7,1.5-2.2,4.2-2,5.4c0.3,1.3,2.3,1.9,3.7,1.5c2-0.6,4.4-5,3.9-8.7
		C125.4,67.3,124.7,66,123.2,66.2z"/>
	<path fill="#3447A5" d="M266.3,88c1.4-2.1,2.2-4.7,2.2-7.4V51.5c0-7.4-6.1-13.5-13.5-13.5h-6.9L266.3,88z"/>
	<path fill="#3447A5" d="M116.3,78.3c-2.5,2.3-6.6,1-8.9-0.7c-2.2,3-4.5,5.4-9.1,5.8c-3.3,0.3-6.2-0.4-8.6-1.8
		c0.1,0.1,0.2,0.2,0.2,0.3c4.5,4.5,9.9,6.7,16.2,6.7c6.3,0,11.6-2.2,16.1-6.6c-0.2,0-0.4,0-0.6,0C118.9,82,117.6,80.7,116.3,78.3z"
		/>
	<path fill="#3447A5" d="M255.2,77.9h-16.1l-5.8,16.1H255c2,0,3.8-0.4,5.5-1.2L255.2,77.9z"/>
	<g>
		<path fill="#3447A5" d="M84.9,87c-5.9-5.9-8.8-13-8.8-21.3c0-8.3,2.9-15.3,8.8-21.2c2.9-2.9,6.2-5.1,9.7-6.6H58.5L39.1,71.6v22.5
			h56.8C91.9,92.6,88.2,90.3,84.9,87z"/>
		<polygon fill="#3447A5" points="58.5,37.9 58.5,37.9 39.1,71.6 39.1,94.1 39.1,94.1 39.1,71.6 		"/>
		<path fill="#3447A5" d="M50.4,37.9H26.8c-1.9,0-3.8,0.4-5.5,1.2l14.1,24.5L50.4,37.9z"/>
		<path fill="#3447A5" d="M35.5,63.6L35.5,63.6L21.4,39.1c0,0,0,0,0,0L35.5,63.6z"/>
		<path fill="#3447A5" d="M13.3,51.5v29.1c0,7.4,6.1,13.5,13.5,13.5H32V71.6L15.8,43.6C14.2,45.9,13.3,48.5,13.3,51.5z"/>
	</g>
	<path fill="#3447A5" d="M194.6,94.1h31l20.5-56.1h-50.8c3.9,1.6,7.6,4,11.3,7.3l-5.4,4.7c-5.2-4.6-10.7-6.9-16.4-6.9
		c-6.3,0-11.7,2.2-16.1,6.7c-4.5,4.5-6.7,9.8-6.7,16.1c0,6.3,2.2,11.7,6.7,16.1c4.5,4.4,9.9,6.7,16.1,6.7c5.4,0,9.9-1.5,13.5-4.4
		V66.6h7.1v20.6C202,90.4,198.4,92.6,194.6,94.1z"/>
	<polygon fill="#3447A5" points="247.1,55.8 241.7,70.9 252.6,70.9 	"/>
</g>
</svg>
