<?xml version="1.0" encoding="utf-8"?>
<!-- Generator: Adobe Illustrator 16.0.0, SVG Export Plug-In . SVG Version: 6.00 Build 0)  -->
<!DOCTYPE svg PUBLIC "-//W3C//DTD SVG 1.1//EN" "http://www.w3.org/Graphics/SVG/1.1/DTD/svg11.dtd">
<svg version="1.1" id="Layer_1" xmlns="http://www.w3.org/2000/svg" xmlns:xlink="http://www.w3.org/1999/xlink" x="0px" y="0px"
	 width="359px" height="98px" viewBox="0 0 359 98" enable-background="new 0 0 359 98" xml:space="preserve">
<linearGradient id="SVGID_1_" gradientUnits="userSpaceOnUse" x1="34.5957" y1="89.9844" x2="43.4064" y2="40.0164">
	<stop  offset="0" style="stop-color:#00AEEF"/>
	<stop  offset="1" style="stop-color:#2E3192"/>
</linearGradient>
<polygon fill="url(#SVGID_1_)" points="12,44 66,44 66,86 12,86 22.896,65 "/>
<polyline fill="none" stroke="#FFFFFF" stroke-miterlimit="10" points="64,83.5 16.41,83.5 25.985,65 16.41,46.5 64,46.5 "/>
<polygon fill="#2E3192" points="66,85.334 51,71.474 51,55 66,55 "/>
<polygon fill="#BA0808" points="351.584,86 298,86 298,44 351.584,44 340.688,65 "/>
<linearGradient id="SVGID_2_" gradientUnits="userSpaceOnUse" x1="320.3936" y1="89.9492" x2="329.1918" y2="40.052">
	<stop  offset="0" style="stop-color:#00AEEF"/>
	<stop  offset="1" style="stop-color:#2E3192"/>
</linearGradient>
<polygon fill="url(#SVGID_2_)" points="351.584,86 298,86 298,44 351.584,44 340.688,65 "/>
<polyline fill="none" stroke="#FFFFFF" stroke-miterlimit="10" points="300,46.5 347.418,46.5 337.843,65 347.418,83.5 300,83.5 "/>
<polygon fill="#2E3192" points="298,85.334 313,71.474 313,55 298,55 "/>
<polygon fill="#D61212" points="118.79,72 51,72 51,20 118.79,20 107.838,46 "/>
<linearGradient id="SVGID_3_" gradientUnits="userSpaceOnUse" x1="79.4272" y1="77.0127" x2="90.3639" y2="14.9881">
	<stop  offset="0" style="stop-color:#00AEEF"/>
	<stop  offset="1" style="stop-color:#2E3192"/>
</linearGradient>
<polygon fill="url(#SVGID_3_)" points="118.79,72 51,72 51,20 118.79,20 107.838,46 "/>
<polyline fill="none" stroke="#FFFFFF" stroke-miterlimit="10" points="51,23 114.055,23 104.422,46 114.055,69 51,69 "/>
<linearGradient id="SVGID_4_" gradientUnits="userSpaceOnUse" x1="235.2412" y1="83.3857" x2="248.4256" y2="8.6134">
	<stop  offset="0" style="stop-color:#00AEEF"/>
	<stop  offset="1" style="stop-color:#2E3192"/>
</linearGradient>
<polygon fill="url(#SVGID_4_)" points="170.667,20 313,20 313,72 170.667,72 181.208,46 "/>
<polyline fill="none" stroke="#FFFFFF" stroke-miterlimit="10" points="313,68.841 175.333,68.841 184.604,45.841 175.333,22.841 
	313,22.841 "/>
<g>
	<path fill="#FFFFFF" d="M60.856,51.424V39.895c0-1.772,0.454-3.143,1.362-4.111c0.908-0.968,2.215-1.453,3.924-1.453
		c1.708,0,3.016,0.484,3.924,1.453c0.908,0.969,1.362,2.339,1.362,4.111v11.529c0,1.772-0.454,3.143-1.362,4.111
		c-0.908,0.969-2.216,1.453-3.924,1.453c-1.708,0-3.016-0.484-3.924-1.453C61.31,54.566,60.856,53.196,60.856,51.424z
		 M64.334,51.627c0.01,1.451,0.615,2.183,1.816,2.193c1.21,0,1.811-0.731,1.8-2.193V39.676c0-1.451-0.603-2.177-1.808-2.177
		s-1.808,0.726-1.808,2.177V51.627z"/>
	<path fill="#FFFFFF" d="M73.653,56.74V34.579h4.694l3.574,13.275V34.579h3.106V56.74h-3.584L77.13,40.699V56.74H73.653z"/>
	<path fill="#FFFFFF" d="M87.191,56.74V34.579h9.489v3.168h-6.012v6.167h4.775v3.168h-4.775v6.491h6.012v3.168H87.191z"/>
</g>
<g>
	<path d="M124.416,62.271l-0.673-1.306l3.427-1.767l0.783,1.521c0.716,1.389,1.609,1.81,2.677,1.259l0.014-0.007
		c1.059-0.546,1.231-1.512,0.517-2.898c-0.408-0.791-1.019-1.416-1.833-1.873s-1.688-0.81-2.619-1.057l-2.636-0.896
		c-1.031-0.258-2.022-0.725-2.976-1.398s-1.718-1.57-2.295-2.689c-0.887-1.722-1.116-3.275-0.687-4.66
		c0.429-1.385,1.418-2.477,2.968-3.275c1.55-0.799,2.977-0.953,4.282-0.461s2.401,1.598,3.288,3.319l0.352,0.683l-3.16,1.628
		l-0.458-0.89c-0.719-1.396-1.637-1.805-2.755-1.229s-1.317,1.562-0.597,2.958c0.301,0.584,0.709,1.078,1.226,1.483
		c0.516,0.403,1.077,0.719,1.685,0.944c0.606,0.227,1.251,0.426,1.932,0.602s1.367,0.373,2.057,0.596
		c0.689,0.221,1.361,0.491,2.015,0.812c0.653,0.32,1.283,0.772,1.891,1.355c0.607,0.582,1.125,1.291,1.554,2.123
		c0.884,1.715,1.138,3.252,0.76,4.607c-0.378,1.357-1.342,2.434-2.893,3.232s-3.023,0.977-4.42,0.531
		C126.444,65.074,125.303,63.992,124.416,62.271z"/>
	<path d="M128.54,43.53l-1.567-3.041l10.34-5.328l1.567,3.041l-3.501,1.804l9.396,18.233l-3.338,1.72l-9.396-18.233L128.54,43.53z"
		/>
	<path d="M146.818,50.729l-5.703-11.068c-0.877-1.701-1.119-3.241-0.727-4.62c0.393-1.378,1.409-2.489,3.049-3.334
		c1.64-0.845,3.134-1.028,4.485-0.547c1.35,0.481,2.464,1.572,3.341,3.273l5.703,11.067c0.877,1.701,1.118,3.241,0.727,4.62
		c-0.393,1.379-1.409,2.49-3.048,3.335c-1.64,0.845-3.134,1.027-4.485,0.546C148.808,53.52,147.695,52.43,146.818,50.729z
		 M150.257,49.203c0.728,1.388,1.67,1.791,2.828,1.206c1.162-0.599,1.376-1.597,0.644-2.995l-5.912-11.473
		c-0.718-1.394-1.655-1.792-2.812-1.195c-1.157,0.597-1.377,1.591-0.659,2.984L150.257,49.203z"/>
	<path d="M161.762,49.486l-10.962-21.274l4.918-2.534c3.318-1.709,5.883-0.807,7.694,2.709l1.424,2.762
		c1.807,3.506,1.051,6.112-2.264,7.82l-1.584,0.816l4.113,7.981L161.762,49.486z M159.419,36.744l1.588-0.818
		c0.544-0.28,0.873-0.644,0.987-1.091c0.113-0.446-0.018-1.036-0.395-1.767l-1.644-3.189c-0.377-0.732-0.78-1.179-1.207-1.34
		c-0.428-0.162-0.914-0.103-1.458,0.177l-1.587,0.818L159.419,36.744z"/>
</g>
<g>
	<path fill="#FFFFFF" d="M191.499,37.747v-3.168h10.772v3.168h-3.647V56.74h-3.478V37.747H191.499z"/>
	<path fill="#FFFFFF" d="M203.785,56.74V34.579h9.49v3.168h-6.012v6.167h4.775v3.168h-4.775v6.491h6.012v3.168H203.785z"/>
	<path fill="#FFFFFF" d="M214.635,56.74l3.895-11.421l-3.646-10.74h3.477L221,42.794l2.682-8.216h3.053l-3.641,10.871l3.875,11.291
		h-3.478l-2.675-8.242l-2.703,8.242H214.635z"/>
	<path fill="#FFFFFF" d="M228.004,37.747v-3.168h10.771v3.168h-3.646V56.74h-3.479V37.747H228.004z"/>
	<path fill="#FFFFFF" d="M240.29,56.74V34.579h5.255c1.793,0,3.102,0.417,3.926,1.251c0.824,0.835,1.236,2.118,1.236,3.849v0.788
		c0,2.277-0.752,3.766-2.257,4.466c1.731,0.68,2.597,2.262,2.597,4.745v1.809c0,1.71-0.448,3.014-1.345,3.91s-2.21,1.344-3.94,1.344
		H240.29z M243.768,43.604h1.366c0.704,0,1.229-0.18,1.575-0.541c0.348-0.36,0.521-0.958,0.521-1.792v-1.236
		c0.011-1.525-0.579-2.288-1.771-2.288h-1.691V43.604z M243.768,53.572h1.994c0.607,0,1.061-0.162,1.359-0.486
		s0.448-0.889,0.448-1.692v-1.933c0-1.009-0.173-1.709-0.518-2.101s-0.919-0.587-1.724-0.587h-1.561V53.572z"/>
	<path fill="#FFFFFF" d="M252.84,51.424V39.895c0-1.772,0.453-3.143,1.361-4.111c0.908-0.968,2.215-1.453,3.924-1.453
		c1.708,0,3.016,0.484,3.924,1.453c0.908,0.969,1.361,2.339,1.361,4.111v11.529c0,1.772-0.453,3.143-1.361,4.111
		s-2.216,1.453-3.924,1.453c-1.709,0-3.016-0.484-3.924-1.453S252.84,53.196,252.84,51.424z M256.316,51.627
		c0.01,1.451,0.615,2.183,1.816,2.193c1.211,0,1.811-0.731,1.801-2.193V39.676c0-1.451-0.604-2.177-1.809-2.177
		s-1.809,0.726-1.809,2.177V51.627z"/>
	<path fill="#FFFFFF" d="M265.373,51.424V39.895c0-1.772,0.454-3.143,1.362-4.111c0.907-0.968,2.216-1.453,3.924-1.453
		s3.016,0.484,3.924,1.453c0.907,0.969,1.362,2.339,1.362,4.111v11.529c0,1.772-0.455,3.143-1.362,4.111
		c-0.908,0.969-2.216,1.453-3.924,1.453s-3.017-0.484-3.924-1.453C265.827,54.566,265.373,53.196,265.373,51.424z M268.852,51.627
		c0.01,1.451,0.615,2.183,1.815,2.193c1.21,0,1.811-0.731,1.8-2.193V39.676c0-1.451-0.602-2.177-1.808-2.177
		s-1.808,0.726-1.808,2.177V51.627z"/>
	<path fill="#FFFFFF" d="M278.201,56.74V34.579h3.477v9.659l4.56-9.659h3.478l-4.838,9.875l4.838,12.286h-3.57l-3.385-8.824
		l-1.082,2.024v6.8H278.201z"/>
	<path fill="#FFFFFF" d="M290.75,51.424v-1.359h3.57v1.582c0,1.449,0.557,2.174,1.669,2.174h0.015c1.104,0,1.654-0.723,1.654-2.166
		c0-0.825-0.238-1.599-0.714-2.32c-0.476-0.722-1.046-1.382-1.708-1.98l-1.789-1.856c-0.74-0.649-1.358-1.454-1.856-2.413
		c-0.499-0.959-0.747-2.021-0.747-3.187c0-1.793,0.469-3.169,1.41-4.128c0.941-0.958,2.219-1.438,3.833-1.438
		s2.854,0.479,3.72,1.438c0.865,0.958,1.299,2.333,1.299,4.126v0.711h-3.293v-0.927c0-1.453-0.582-2.179-1.746-2.179
		s-1.746,0.727-1.746,2.181c0,0.608,0.127,1.188,0.381,1.74c0.253,0.552,0.582,1.05,0.985,1.493s0.849,0.881,1.335,1.315
		c0.486,0.433,0.967,0.887,1.441,1.361c0.473,0.475,0.911,0.982,1.312,1.524c0.402,0.542,0.729,1.181,0.982,1.918
		c0.252,0.737,0.378,1.539,0.378,2.405c0,1.789-0.442,3.16-1.329,4.117c-0.887,0.955-2.137,1.434-3.752,1.434
		s-2.903-0.479-3.863-1.438C291.23,54.592,290.75,53.217,290.75,51.424z"/>
</g>
</svg>
