<svg width="54px" height="54px" viewBox="0 0 54 54" version="1.1" xmlns="http://www.w3.org/2000/svg" xmlns:xlink="http://www.w3.org/1999/xlink">
    <defs>
        <path d="M6.21428571,3.96764549 L6.21428571,13.5302735 C6.21428571,15.2463011 4.82317047,16.6374164 3.10714286,16.6374164 C1.39111524,16.6374164 -2.95438243e-14,15.2463011 -2.97539771e-14,13.5302735 L-2.9041947e-14,1.98620229 C0.579922224,0.921664997 1.24240791,1.12585387e-13 2.43677218,1.0658141e-13 C4.3810703,1.0658141e-13 5.06039718,2.44244728 6.21428571,3.96764549 Z M17.952381,4.46584612 L17.952381,19.587619 C17.952381,21.4943164 16.4066974,23.04 14.5,23.04 C12.5933026,23.04 11.047619,21.4943164 11.047619,19.587619 L11.047619,2.47273143 C11.6977478,1.21920793 12.3678531,1.0658141e-13 13.7415444,1.0658141e-13 C15.916357,1.0658141e-13 16.5084695,3.05592831 17.952381,4.46584612 Z M29,4.18831009 L29,15.1664032 C29,16.8824308 27.6088848,18.2735461 25.8928571,18.2735461 C24.1768295,18.2735461 22.7857143,16.8824308 22.7857143,15.1664032 L22.7857143,1.67316044 C23.3267006,0.747223402 23.9709031,1.0658141e-13 25.0463166,1.0658141e-13 C27.0874587,1.0658141e-13 27.7344767,2.69181961 29,4.18831009 Z" id="path-100"></path>
    </defs>
    <g id="Jelly" style="transform: translateY(2.808%);">
        <path d="M46.7606724,33.2469068 C45.9448607,34.4803214 45.3250477,36 43.6664081,36 C40.8749581,36 40.7240285,31.6956522 37.9310842,31.6956522 C35.1381399,31.6956522 35.2890695,36 32.4976195,36 C29.7061695,36 29.55524,31.6956522 26.7622957,31.6956522 C23.9693513,31.6956522 24.1202809,36 21.3288309,36 C18.537381,36 18.3864514,31.6956522 15.5935071,31.6956522 C12.8005628,31.6956522 12.9514923,36 10.1600424,36 C9.2827466,36 8.66625943,35.5748524 8.14660082,34.9917876 C6.14914487,31.5156333 5,27.4421238 5,23.0869565 C5,10.3363825 14.8497355,0 27,0 C39.1502645,0 49,10.3363825 49,23.0869565 C49,26.7327091 48.1947338,30.1810893 46.7606724,33.2469068 Z" id="Body-Copy-2"></path>
        <g id="Legs" transform="translate(12.000000, 27.000000)">
            <mask id="mask-2" fill="white">
                <use xlink:href="#path-100"></use>
            </mask>
            <use id="Combined-Shape" xlink:href="#path-100"></use>
            <mask id="mask-4" fill="white">
                <use xlink:href="#path-300"></use>
            </mask>
        </g>
        <path d="M46.7606724,33.2469068 C45.9448607,34.4803214 45.3250477,36 43.6664081,36 C40.8749581,36 40.7240285,31.6956522 37.9310842,31.6956522 C35.1381399,31.6956522 35.2890695,36 32.4976195,36 C29.7061695,36 29.55524,31.6956522 26.7622957,31.6956522 C23.9693513,31.6956522 24.1202809,36 21.3288309,36 C18.537381,36 18.3864514,31.6956522 15.5935071,31.6956522 C12.8005628,31.6956522 12.9514923,36 10.1600424,36 C9.2827466,36 8.66625943,35.5748524 8.14660082,34.9917876 C6.14914487,31.5156333 5,27.4421238 5,23.0869565 C5,10.3363825 14.8497355,0 27,0 C39.1502645,0 49,10.3363825 49,23.0869565 C49,26.7327091 48.1947338,30.1810893 46.7606724,33.2469068 Z" id="Body-Copy-4"></path>
        <path d="M42,35.5400931 C47.765228,26.9635183 47.9142005,17.4501539 42.4469174,7 C46.4994826,11.151687 49,16.849102 49,23.1355865 C49,26.7676093 48.1653367,30.203003 46.6789234,33.2572748 C45.8333297,34.4860445 45.1908898,36 43.4716997,36 C42.8832919,36 42.4080759,35.8226537 42,35.5400931 Z" id="Combined-Shape"></path>
        <g id="Eyes-Copy-2" transform="translate(0.000000, 6.000000)">
            <path d="M25.8205128,22.8461538 C33.4710351,22.8461538 36.6923077,18.4078931 36.6923077,12.1048951 C36.6923077,5.80189712 31.8248393,0 25.8205128,0 C19.8161863,0 14.9487179,5.80189712 14.9487179,12.1048951 C14.9487179,18.4078931 18.1699905,22.8461538 25.8205128,22.8461538 Z" id="Oval" fill="#323232"></path>
            <g id="Pupil" transform="translate(18.820513, 3.461538)">
                <ellipse id="Oval" cx="4.07692308" cy="4.5" rx="4.07692308" ry="4.5"></ellipse>
                <ellipse id="Oval" fill="#323232" cx="3.3974359" cy="3.46153846" rx="2.03846154" ry="2.07692308"></ellipse>
            </g>
        </g>
    </g>
</svg>